<mxfile host="app.diagrams.net" modified="2024-05-22T07:04:21.962Z" agent="Mozilla/5.0 (Windows NT 10.0; Win64; x64) AppleWebKit/537.36 (KHTML, like Gecko) Chrome/125.0.0.0 Safari/537.36" etag="3Eh0RHuMuA6dXFKxSjzq" version="24.4.4" type="github">
  <diagram id="R2lEEEUBdFMjLlhIrx00" name="Page-1">
    <mxGraphModel dx="1434" dy="746" grid="1" gridSize="10" guides="1" tooltips="1" connect="1" arrows="1" fold="1" page="1" pageScale="1" pageWidth="850" pageHeight="1100" math="0" shadow="0" extFonts="Permanent Marker^https://fonts.googleapis.com/css?family=Permanent+Marker">
      <root>
        <mxCell id="0" />
        <mxCell id="1" parent="0" />
        <mxCell id="jQJHbzjZYA-8cXrEOkZu-13" value="" style="endArrow=none;html=1;rounded=0;" edge="1" parent="1">
          <mxGeometry relative="1" as="geometry">
            <mxPoint x="240" y="160" as="sourcePoint" />
            <mxPoint x="440" y="280" as="targetPoint" />
            <Array as="points">
              <mxPoint x="440" y="160" />
            </Array>
          </mxGeometry>
        </mxCell>
        <mxCell id="jQJHbzjZYA-8cXrEOkZu-14" value="" style="endArrow=none;html=1;rounded=0;entryX=0;entryY=0.25;entryDx=0;entryDy=0;" edge="1" parent="1">
          <mxGeometry relative="1" as="geometry">
            <mxPoint x="240" y="120" as="sourcePoint" />
            <mxPoint x="640" y="120" as="targetPoint" />
            <Array as="points">
              <mxPoint x="440" y="120" />
            </Array>
          </mxGeometry>
        </mxCell>
        <mxCell id="jQJHbzjZYA-8cXrEOkZu-15" value="" style="endArrow=none;html=1;rounded=0;exitX=1;exitY=0.467;exitDx=0;exitDy=0;exitPerimeter=0;" edge="1" parent="1" source="jQJHbzjZYA-8cXrEOkZu-28">
          <mxGeometry relative="1" as="geometry">
            <mxPoint x="240" y="640" as="sourcePoint" />
            <mxPoint x="440" y="480" as="targetPoint" />
            <Array as="points">
              <mxPoint x="440" y="604" />
            </Array>
          </mxGeometry>
        </mxCell>
        <mxCell id="jQJHbzjZYA-8cXrEOkZu-18" value="" style="endArrow=none;html=1;rounded=0;exitX=0.5;exitY=0;exitDx=0;exitDy=0;entryX=0.5;entryY=1;entryDx=0;entryDy=0;" edge="1" parent="1">
          <mxGeometry relative="1" as="geometry">
            <mxPoint x="740" y="520" as="sourcePoint" />
            <mxPoint x="740" y="240" as="targetPoint" />
          </mxGeometry>
        </mxCell>
        <mxCell id="jQJHbzjZYA-8cXrEOkZu-20" value="" style="endArrow=none;html=1;rounded=0;exitX=0.5;exitY=0;exitDx=0;exitDy=0;entryX=0.5;entryY=1;entryDx=0;entryDy=0;" edge="1" parent="1">
          <mxGeometry relative="1" as="geometry">
            <mxPoint x="139.5" y="520" as="sourcePoint" />
            <mxPoint x="139.5" y="240" as="targetPoint" />
          </mxGeometry>
        </mxCell>
        <mxCell id="jQJHbzjZYA-8cXrEOkZu-21" value="" style="endArrow=none;html=1;rounded=0;entryX=0;entryY=0.25;entryDx=0;entryDy=0;" edge="1" parent="1">
          <mxGeometry relative="1" as="geometry">
            <mxPoint x="240" y="160" as="sourcePoint" />
            <mxPoint x="640" y="160" as="targetPoint" />
            <Array as="points">
              <mxPoint x="440" y="160" />
            </Array>
          </mxGeometry>
        </mxCell>
        <mxCell id="jQJHbzjZYA-8cXrEOkZu-24" value="&lt;span style=&quot;font-weight: 700;&quot;&gt;Purchase&lt;/span&gt;" style="rounded=0;whiteSpace=wrap;html=1;" vertex="1" parent="1">
          <mxGeometry x="40" y="60" width="200" height="180" as="geometry" />
        </mxCell>
        <mxCell id="jQJHbzjZYA-8cXrEOkZu-25" value="&lt;span style=&quot;font-weight: 700;&quot;&gt;Mobile Phone&lt;/span&gt;" style="rounded=0;whiteSpace=wrap;html=1;" vertex="1" parent="1">
          <mxGeometry x="640" y="60" width="200" height="180" as="geometry" />
        </mxCell>
        <mxCell id="jQJHbzjZYA-8cXrEOkZu-26" value="&lt;span style=&quot;font-weight: 700;&quot;&gt;Manage&lt;/span&gt;" style="rounded=0;whiteSpace=wrap;html=1;" vertex="1" parent="1">
          <mxGeometry x="340" y="280" width="200" height="200" as="geometry" />
        </mxCell>
        <mxCell id="jQJHbzjZYA-8cXrEOkZu-27" value="&lt;span style=&quot;font-weight: 700;&quot;&gt;Store&lt;/span&gt;" style="rounded=0;whiteSpace=wrap;html=1;" vertex="1" parent="1">
          <mxGeometry x="640" y="520" width="200" height="180" as="geometry" />
        </mxCell>
        <mxCell id="jQJHbzjZYA-8cXrEOkZu-28" value="&lt;span style=&quot;font-weight: 700;&quot;&gt;Customer&lt;/span&gt;" style="rounded=0;whiteSpace=wrap;html=1;" vertex="1" parent="1">
          <mxGeometry x="40" y="520" width="200" height="180" as="geometry" />
        </mxCell>
      </root>
    </mxGraphModel>
  </diagram>
</mxfile>
